<svg xmlns="http://www.w3.org/2000/svg" width="965.0" height="480.0" viewBox="0.0 0.0 965.0 480.0" fill="none">
<g clip-path="url(#clip0_112411_121277)">
<path d="M0 80C0 35.8172 35.8172 0 80 0H885C929.183 0 965 35.8172 965 80V400C965 444.183 929.183 480 885 480H80C35.8172 480 0 444.183 0 400V80Z" fill="#210340" />
<path d="M1180.47 210.557C1229.86 231.636 1305.2 238.579 1336.7 239.415V437.227H-92.6725V221.222C-44.2919 222.226 40.8783 191.109 77.4158 175.425C258.213 111.436 382.315 156.605 444.68 187.973C507.046 219.34 667.055 256.354 844.703 199.892C1022.35 143.43 1118.73 184.208 1180.47 210.557Z" fill="url(#paint0_linear_112411_121277)" />
<path d="M796.553 277.255C852.803 270.113 941.315 300.068 978.539 315.938V430.797H-370.993V258.211C-365.085 269.915 -319.352 297.846 -183.689 315.938C-14.1116 338.552 40.2479 254.64 167.874 258.211C295.501 261.781 405.992 395.685 525.347 395.685C618.535 395.685 686.062 291.282 796.553 277.255Z" fill="url(#paint1_linear_112411_121277)" />
<path d="M544.988 145.07C544.988 111.954 565.918 84.4378 593.483 78.7916C590.073 78.0887 586.572 77.7085 582.989 77.7085C550.413 77.7085 524 107.875 524 145.07C524 169.107 535.035 190.182 551.623 202.108L541.509 376.458H562.497L572.61 202.108C556.023 190.182 544.988 169.107 544.988 145.07Z" fill="url(#paint2_linear_112411_121277)" />
<path d="M641.991 145.07C641.991 111.954 621.06 84.4379 593.495 78.7917C565.919 84.4494 545 111.966 545 145.07C545 169.107 556.035 190.182 572.623 202.108L562.509 376.458H624.482L614.379 202.108C630.967 190.182 642.002 169.107 642.002 145.07H641.991Z" fill="url(#paint3_linear_112411_121277)" />
<path d="M544.988 145.07C544.988 111.954 565.918 84.4378 593.483 78.7916C590.073 78.0887 586.572 77.7085 582.989 77.7085C550.413 77.7085 524 107.875 524 145.07C524 169.107 535.035 190.182 551.623 202.108L541.509 376.458H562.497L572.61 202.108C556.023 190.182 544.988 169.107 544.988 145.07Z" fill="url(#paint4_linear_112411_121277)" />
<path d="M530.549 352.041C525.4 353.631 520.884 354.795 520.366 354.184C519.352 353.02 522.647 350.6 526.068 346.579C529.489 342.557 540.513 332.51 540.513 332.51C540.513 332.51 524.467 340.138 518.465 342.016C514.503 343.26 512.233 343.963 511.75 343.122C509.757 339.688 525.169 327.624 523.292 323.58C514.549 333.627 500.553 346.026 497.109 349.264C489.829 356.097 485.014 360.556 477.976 371.779C477.112 373.162 476.213 374.637 475.269 376.238C467.804 388.936 469.037 400.102 470.707 404.377C473.368 411.221 475.269 411.901 478.333 411.982C483.274 412.108 485.428 411.59 486.696 409.815C488.4 407.43 488.976 403.697 486.983 399.699C485.244 396.207 484.657 390.78 490.912 383.083C491.015 382.956 491.107 382.829 491.211 382.703C496.418 376.457 498.341 374.959 504.124 370.385C508.628 366.824 519.732 364.658 531.056 362.423C532.887 360.913 534.719 359.438 536.331 357.986C543.047 351.96 544.279 348.561 544.314 348.492C542.943 348.791 536.492 350.209 530.56 352.041H530.549Z" fill="#D81F60" />
<path d="M621.403 323.488V323.442C621.069 323.545 620.758 323.661 620.412 323.764C613.627 326.023 608.236 328.408 603.444 330.885C603.433 330.885 603.41 330.897 603.398 330.908C610.632 340.265 618.869 351.154 623.372 357.629L621.391 323.476L621.403 323.488Z" fill="url(#paint5_linear_112411_121277)" />
<path d="M617.096 249.212C602.835 247.08 578.403 245.433 556.655 253.741C523.457 266.427 486.135 290.129 463.282 253.395C447.558 228.126 490.455 202.142 481.574 152.663C481.136 150.232 480.629 147.985 480.076 145.888C474.731 125.712 464.71 120.976 464.71 120.976C464.71 120.976 465.954 128.109 463.881 136.048C461.807 143.987 460.16 148.089 460.16 148.089C460.16 148.089 465.505 106.469 417.447 78.7454C369.401 51.0217 322 91.259 322 91.259C322 91.259 367.892 83.4581 378.086 122.578C387.82 159.923 355.762 181.32 355.762 222.894C355.762 248.463 360.612 254.305 360.612 254.305C360.612 254.305 356.108 251.563 349.07 243.347C342.665 235.857 338.346 227.665 338.346 227.665C338.346 227.665 330.121 276.463 380.01 308.658C401.793 322.715 422.734 328.719 442.628 328.926C471.76 329.226 498.691 317.092 522.858 299.601C534.343 291.293 537.879 289.161 539.365 290.279C540.863 291.397 534.919 306.019 528.94 316.09C527.662 318.245 525.669 320.814 523.284 323.557C525.15 327.601 509.749 339.654 511.742 343.099C512.226 343.94 514.495 343.237 518.458 341.993C524.459 340.115 540.505 332.487 540.505 332.487C540.505 332.487 529.482 342.535 526.061 346.556C522.639 350.577 519.345 352.997 520.359 354.161C520.888 354.772 525.404 353.596 530.541 352.018C536.485 350.186 542.924 348.768 544.295 348.469C544.272 348.549 543.028 351.937 536.312 357.963C534.7 359.415 532.868 360.89 531.037 362.4C538.996 360.821 547.048 359.219 552.981 357.065C579.509 347.432 588.482 338.651 603.388 330.908C603.4 330.908 603.423 330.897 603.434 330.885C608.215 328.408 613.605 326.022 620.402 323.764C620.736 323.649 621.058 323.545 621.392 323.441L617.084 249.201L617.096 249.212Z" fill="url(#paint6_linear_112411_121277)" />
<path opacity="0.4" d="M369.702 249.892C369.702 249.892 368.021 240.363 368.551 217.582C368.885 203.098 373.181 189.951 373.181 189.951L376.695 205.702C376.695 205.702 377.72 190.769 383.675 177.103C395.586 149.748 409.04 147.305 409.04 147.305C409.04 147.305 415.237 163.587 406.679 208.963C403.557 225.522 378.779 273.168 375.877 270.921C372.962 268.674 374.068 267.084 369.714 249.892H369.702Z" fill="url(#paint7_radial_112411_121277)" />
<path opacity="0.5" d="M446.582 132.187C446.582 132.187 445.718 125.47 441.514 118.199C437.309 110.917 429.822 104.521 429.822 104.521L432.725 116.148C432.725 116.148 427.991 109.972 420.181 102.586C417.163 99.728 411.783 96.3403 411.783 96.3403C411.783 96.3403 419.789 107.333 423.728 116.736C427.668 126.138 430.939 134.054 431.596 141.06C432.253 148.077 429.672 156.604 437.39 158.597C445.108 160.591 450.395 147.432 446.594 132.187H446.582Z" fill="url(#paint8_linear_112411_121277)" />
<path opacity="0.4" d="M620.411 323.776C620.745 323.66 621.068 323.557 621.402 323.453L617.094 249.212C602.833 247.081 578.401 245.433 556.653 253.741C523.455 266.427 486.133 290.129 463.279 253.395C447.556 228.126 490.453 202.142 481.572 152.664C481.134 150.232 480.627 147.985 480.074 145.888C454.456 160.384 434.908 181.804 425.013 209.171C411.098 247.622 418.85 290.544 442.637 328.938C471.769 329.237 498.7 317.104 522.867 299.613C534.352 291.305 537.888 289.173 539.374 290.291C540.872 291.408 534.928 306.031 528.95 316.102C527.671 318.256 525.678 320.826 523.294 323.568C525.16 327.613 509.759 339.665 511.752 343.111C512.235 343.952 514.505 343.249 518.467 342.005C524.469 340.126 540.515 332.498 540.515 332.498C540.515 332.498 529.491 342.546 526.07 346.568C522.649 350.589 519.354 353.009 520.368 354.173C520.898 354.783 525.413 353.608 530.551 352.029C536.495 350.197 542.934 348.78 544.304 348.48C544.281 348.561 543.037 351.949 536.322 357.975C534.709 359.427 532.878 360.902 531.046 362.411C539.006 360.833 547.058 359.231 552.99 357.076C579.518 347.443 588.492 338.663 603.397 330.92C603.409 330.92 603.432 330.908 603.443 330.897C608.224 328.419 613.615 326.034 620.411 323.776Z" fill="url(#paint9_radial_112411_121277)" />
</g>
<defs>
<linearGradient id="paint0_linear_112411_121277" x1="618.812" y1="362.919" x2="639.483" y2="90.895" gradientUnits="userSpaceOnUse">
<stop stop-color="#210340" />
<stop offset="0.23" stop-color="#29074C" />
<stop offset="0.65" stop-color="#3E126D" />
<stop offset="1" stop-color="#541D8F" />
</linearGradient>
<linearGradient id="paint1_linear_112411_121277" x1="300.751" y1="387.182" x2="308.32" y2="226.952" gradientUnits="userSpaceOnUse">
<stop stop-color="#210340" />
<stop offset="0.23" stop-color="#29074C" />
<stop offset="0.65" stop-color="#3E126D" />
<stop offset="1" stop-color="#541D8F" />
</linearGradient>
<linearGradient id="paint2_linear_112411_121277" x1="554.122" y1="376.688" x2="559.344" y2="77.2822" gradientUnits="userSpaceOnUse">
<stop stop-color="#E752FF" />
<stop offset="0.37" stop-color="#A23EFF" />
<stop offset="1" stop-color="#271AFF" />
</linearGradient>
<linearGradient id="paint3_linear_112411_121277" x1="704.942" y1="330.24" x2="503.041" y2="160.331" gradientUnits="userSpaceOnUse">
<stop stop-color="#A030B9" />
<stop offset="0.01" stop-color="#9C2FB8" />
<stop offset="0.38" stop-color="#2C12B4" />
<stop offset="0.54" stop-color="#0007B3" />
<stop offset="0.99" stop-color="#00073A" />
</linearGradient>
<linearGradient id="paint4_linear_112411_121277" x1="554.122" y1="376.688" x2="559.344" y2="77.2822" gradientUnits="userSpaceOnUse">
<stop stop-color="#E752FF" stop-opacity="0" />
<stop offset="0.24" stop-color="#CC49E8" stop-opacity="0.12" />
<stop offset="0.58" stop-color="#8131A8" stop-opacity="0.44" />
<stop offset="0.97" stop-color="#080941" stop-opacity="0.96" />
<stop offset="1" stop-color="#00073A" />
</linearGradient>
<linearGradient id="paint5_linear_112411_121277" x1="635.283" y1="364.751" x2="574.815" y2="265.523" gradientUnits="userSpaceOnUse">
<stop offset="0.19" stop-color="#D81F60" />
<stop offset="0.57" stop-color="#6C134D" />
<stop offset="0.86" stop-color="#1E0A3F" />
<stop offset="1" stop-color="#00073A" />
</linearGradient>
<linearGradient id="paint6_linear_112411_121277" x1="384.721" y1="52.5312" x2="526.952" y2="357.457" gradientUnits="userSpaceOnUse">
<stop stop-color="#FFEB49" />
<stop offset="0.32" stop-color="#FF9B1D" />
<stop offset="0.56" stop-color="#FF6600" />
<stop offset="0.7" stop-color="#FD4835" />
<stop offset="0.83" stop-color="#FB3161" />
<stop offset="0.9" stop-color="#FB2872" />
</linearGradient>
<radialGradient id="paint7_radial_112411_121277" cx="0" cy="0" r="1" gradientTransform="matrix(54.1023 1.24704 -1.24665 54.1193 336.929 193.052)" gradientUnits="userSpaceOnUse">
<stop offset="0.51" stop-color="#FFEB49" />
<stop offset="0.55" stop-color="#FFEB49" stop-opacity="0.96" />
<stop offset="0.63" stop-color="#FFEB49" stop-opacity="0.84" />
<stop offset="0.72" stop-color="#FFEB49" stop-opacity="0.66" />
<stop offset="0.84" stop-color="#FFEB49" stop-opacity="0.4" />
<stop offset="0.97" stop-color="#FFEB49" stop-opacity="0.07" />
<stop offset="1" stop-color="#FFEB49" stop-opacity="0" />
</radialGradient>
<linearGradient id="paint8_linear_112411_121277" x1="414.187" y1="94.1223" x2="447.852" y2="156.447" gradientUnits="userSpaceOnUse">
<stop offset="0.42" stop-color="#FFEB49" />
<stop offset="0.46" stop-color="#FFE545" stop-opacity="0.96" />
<stop offset="0.53" stop-color="#FFD63D" stop-opacity="0.84" />
<stop offset="0.62" stop-color="#FFBD2F" stop-opacity="0.66" />
<stop offset="0.73" stop-color="#FF9A1C" stop-opacity="0.4" />
<stop offset="0.85" stop-color="#FF6F05" stop-opacity="0.07" />
<stop offset="0.88" stop-color="#FF6600" stop-opacity="0" />
</linearGradient>
<radialGradient id="paint9_radial_112411_121277" cx="0" cy="0" r="1" gradientTransform="matrix(149.795 59.5387 -43.7977 110.261 631.175 286.966)" gradientUnits="userSpaceOnUse">
<stop stop-color="#FFEB49" stop-opacity="0.8" />
<stop offset="0.7" stop-color="#FFEB49" stop-opacity="0" />
</radialGradient>
<clipPath id="clip0_112411_121277">
<path d="M0 80C0 35.8172 35.8172 0 80 0H885C929.183 0 965 35.8172 965 80V400C965 444.183 929.183 480 885 480H80C35.8172 480 0 444.183 0 400V80Z" fill="white" />
</clipPath>
</defs>
</svg>